<svg width="512" height="486" viewBox="0 0 512 486" fill="none" xmlns="http://www.w3.org/2000/svg">
<path opacity="0.5" d="M511.876 3.28016L386.605 447.056C385.968 449.071 383.42 449.675 381.934 448.265L298.066 368.696L360.914 146.304C361.551 144.289 359.64 142.476 357.517 143.081L123.112 202.708L39.6694 123.541C38.1832 122.131 38.8201 119.714 40.9434 119.109L508.478 0.0570948C510.602 -0.345789 512.513 1.46719 511.876 3.28016Z" fill="#00B37E"/>
<path opacity="0.5" d="M298.062 368.692L265.789 483.514C265.152 485.528 262.604 486.132 261.118 484.722L0.810006 237.956C-0.676254 236.546 -0.0392887 234.128 2.08394 233.524L123.108 202.703L298.062 368.692Z" fill="#00B37E"/>
<path d="M360.903 146.3L298.056 368.691L123.102 202.703L357.506 143.076C359.629 142.472 361.54 144.285 360.903 146.3Z" fill="#00B37E"/>
</svg>
